<?xml version="1.0" encoding="UTF-8" standalone="no"?>
<!-- Created with Inkscape (http://www.inkscape.org/) -->
<svg
   xmlns:svg="http://www.w3.org/2000/svg"
   xmlns="http://www.w3.org/2000/svg"
   version="1.0"
   width="512"
   height="512"
   id="svg3348">
  <defs
     id="defs3350" />
  <g
     transform="translate(-122.85715,-268.93362)"
     style="fill:#402000;fill-opacity:1;stroke:none;stroke-opacity:1"
     id="layer1">
    <rect
       width="512"
       height="512"
       ry="90"
       x="122.85715"
       y="268.93362"
       style="opacity:1;fill:#402000;fill-opacity:1;fill-rule:nonzero;stroke:none;stroke-opacity:1"
       id="rect3356" />
  </g>
  <g
     transform="matrix(0.9277344,0,0,0.9277344,-95.478811,-230.99898)"
     style="fill:#7a6941;fill-opacity:1"
     id="g3975">
    <rect
       width="512"
       height="512"
       ry="90"
       x="122.85715"
       y="268.93362"
       style="opacity:1;fill:#7a6941;fill-opacity:1;fill-rule:nonzero;stroke:none;stroke-width:3.8810041;stroke-miterlimit:4;stroke-dasharray:none;stroke-opacity:1"
       id="rect3977" />
  </g>
  <g
     transform="matrix(0.3268017,0,0,0.326142,132.71928,80.751963)"
     id="g4184">
    <path
       d="M 303.98819,1094.5716 L 294.98819,1076.9066 L 288.98819,1074.7123 C 246.04116,1059.0053 222.40145,1025.8299 222.50925,981.4172 C 222.52084,976.6445 223.18253,963.5893 223.97968,952.40565 C 232.85683,827.86312 223.69973,730.82122 196.84523,664.84973 C 187.77173,642.55952 178.85937,626.31829 157.04866,592.32734 C 150.8417,582.65408 142.71154,569.3396 138.98164,562.7396 C 130.50379,547.73819 123.99202,538.00901 105.51648,512.7396 C 85.715874,485.65789 76.821971,472.68355 68.413511,458.61417 C 46.378072,421.74355 34.087003,385.57284 28.868589,342.2396 C 26.793156,325.00539 26.533653,287.31742 28.379715,271.2396 C 37.589574,191.0286 70.857942,121.86769 127.47869,65.224821 C 177.13703,15.547075 240.31336,-17.914682 310.48819,-31.707357 C 331.08227,-35.755069 342.81816,-36.882717 369.98819,-37.42444 C 399.7715,-38.018267 415.97126,-36.835509 441.29306,-32.218413 C 581.21674,-6.7051752 693.84635,102.46383 720.89956,238.79705 C 724.93563,259.13663 726.48736,273.13851 727.15469,295.2396 C 728.63622,344.30567 720.63135,386.88679 702.24589,427.7396 C 691.77217,451.01239 679.29573,471.0503 651.50057,509.2396 C 626.00351,544.27142 622.0683,550.58003 591.30534,605.7396 C 559.67007,662.46328 543.59476,728.63179 536.03534,833.2396 C 534.12742,859.64145 532.63273,898.23033 531.5035,950.2396 C 530.56298,993.5572 530.18499,997.3518 525.32772,1012.2396 C 522.69061,1020.3225 517.41872,1030.9682 512.36376,1038.4181 C 502.52615,1052.9167 482.85746,1067.7453 464.16062,1074.7595 L 459.33305,1076.5706 L 450.40535,1094.4051 L 441.47765,1112.2396 L 377.23292,1112.2381 L 312.98819,1112.2366 L 303.98819,1094.5716 z "
       style="fill:#402000;fill-opacity:1"
       id="path2226" />
    <path
       d="M 322.49444,824.9896 C 322.49788,818.2521 321.79565,770.8896 320.93392,719.7396 L 319.36713,626.7396 L 275.43392,506.31668 C 251.27065,440.08407 231.61039,385.79517 231.74445,385.67469 C 231.87851,385.5542 259.11433,438.93596 292.26849,504.30082 L 352.54879,623.14601 L 354.26849,729.94281 L 355.98819,836.7396 L 379.73819,837.0077 L 403.48819,837.2758 L 403.55735,832.5077 C 403.59539,829.88524 404.41362,781.6146 405.37563,725.2396 L 407.12474,622.7396 L 469.30572,503.7396 C 503.50526,438.2896 531.48704,385.04344 531.48745,385.4148 C 531.48785,385.78616 511.02595,440.16804 486.01655,506.26341 L 440.5449,626.43681 L 439.01655,714.55987 C 438.17595,763.02755 437.48819,810.45817 437.48819,819.96126 L 437.48819,837.2396 L 458.28835,837.2396 L 479.0885,837.2396 L 480.29931,814.9896 C 484.52358,737.36402 493.64504,678.08484 507.60337,637.54404 C 515.96329,613.26337 523.30849,598.91782 546.16074,562.2396 C 553.87095,549.8646 561.90754,536.5896 564.01984,532.7396 C 566.13214,528.8896 575.77826,513.8146 585.45566,499.2396 C 625.88208,438.35393 644.8917,403.07587 657.61423,365.32771 C 670.36669,327.49075 671.36063,293.32588 660.91666,251.8134 C 640.38491,170.20423 575.4212,93.395431 492.98819,53.265887 C 433.87798,24.490203 374.44046,17.873363 314.546,33.400938 C 279.21284,42.561022 240.13605,61.885291 208.3296,85.927121 C 130.85816,144.48615 83.725989,232.47147 86.830205,312.7396 C 87.703495,335.32094 91.852705,353.38839 102.20775,379.69995 C 115.87735,414.43363 132.53175,444.18687 169.95984,500.7396 C 179.42396,515.0396 188.64855,529.4396 190.45892,532.7396 C 195.02891,541.06988 203.6911,553.87752 217.85027,573.2396 C 233.94139,595.24353 241.21578,606.84128 249.9613,624.43506 C 272.17344,669.12026 283.3943,733.26688 283.469,815.9896 L 283.48819,837.2396 L 302.98819,837.2396 L 322.48819,837.2396 L 322.49444,824.9896 z "
       style="fill:#b8b685;fill-opacity:1"
       id="path2224" />
    <path
       d="M 290.66566,364.65883 L 263.34312,349.16224 L 256.66566,355.10669 C 252.99305,358.37613 248.63819,362.48594 246.98819,364.2396 C 245.33819,365.99326 240.94444,370.13755 237.22431,373.44913 L 230.46042,379.47019 L 232.36978,375.10489 C 236.57224,365.49693 258.62742,319.70037 259.44655,318.88124 C 259.94797,318.37982 272.56346,324.65379 288.94674,333.55237 L 317.57087,349.09957 L 344.25376,333.66958 C 358.92935,325.18309 371.44522,318.2396 372.06681,318.2396 C 372.97978,318.2396 410.95306,339.87852 423.02674,347.27892 L 426.06529,349.14135 L 455.51725,333.69048 C 471.71582,325.19249 485.30522,318.2396 485.71591,318.2396 C 486.46529,318.2396 531.48819,377.74303 531.48819,378.73343 C 531.48819,379.02377 521.37051,372.50643 509.00445,364.25046 C 496.6384,355.99449 486.28902,349.2396 486.00584,349.2396 C 485.72266,349.2396 472.0327,356.2146 455.58372,364.7396 C 439.13473,373.2646 425.21649,380.2396 424.65428,380.2396 C 424.09208,380.2396 413.20096,373.70434 400.4518,365.7168 C 387.70263,357.72926 376.4157,350.73599 375.36972,350.1762 C 373.79738,349.33471 368.85702,351.85046 346.85029,364.699 C 332.21058,373.24633 319.72763,380.22066 319.11041,380.19751 C 318.49319,380.17436 305.69305,373.18196 290.66566,364.65883 z "
       style="fill:#ffffff;fill-opacity:1"
       id="path2220" />
  </g>
</svg>
