<?xml version="1.0" encoding="UTF-8" standalone="no"?>
<!-- Created with Inkscape (http://www.inkscape.org/) -->

<svg
   xmlns:svg="http://www.w3.org/2000/svg"
   xmlns="http://www.w3.org/2000/svg"
   version="1.2"
   width="512"
   height="512"
   id="svg3348">
  <defs
     id="defs3350" />
  <g
     transform="translate(-122.85715,-268.93362)"
     id="layer1"
     style="fill:#402000;fill-opacity:1;stroke:none">
    <rect
       width="512"
       height="512"
       ry="90"
       x="122.85715"
       y="268.93362"
       id="rect3356"
       style="fill:#402000;fill-opacity:1;fill-rule:nonzero;stroke:none" />
  </g>
  <g
     transform="matrix(0.9277344,0,0,0.9277344,-95.478812,-230.99898)"
     id="g3975"
     style="fill:#7a6941;fill-opacity:1">
    <rect
       width="512"
       height="512"
       ry="90"
       x="122.85715"
       y="268.93362"
       id="rect3977"
       style="fill:#7a6941;fill-opacity:1;fill-rule:nonzero;stroke:none" />
  </g>
  <g
     transform="translate(186.57626,321.08474)"
     id="flowRoot2895"
     style="font-size:40px;font-style:normal;font-weight:normal;fill:#d6d4a3;fill-opacity:1;stroke:none;font-family:Bitstream Vera Sans">
    <path
       d="m -105.78516,-230.7007 0,3.05859 c 1.7578,-1.72261 3.33983,-2.90034 4.7461,-3.5332 1.441382,-0.66792 3.093724,-1.0019 4.957029,-1.00195 1.582004,5e-5 3.146456,0.38676 4.693359,1.16015 1.546843,0.77349 3.058561,1.93364 4.535156,3.48047 1.863245,-1.54683 3.744103,-2.6894 5.642579,-3.42773 1.933551,-0.77339 3.902299,-1.16011 5.90625,-1.16016 4.007762,5e-5 7.259712,1.07232 9.755859,3.2168 3.304628,2.81254 4.95697,6.50394 4.957031,11.07422 l 0,24.20508 c 2.249937,1e-5 3.919857,0.50977 5.009766,1.52929 1.089776,1.01954 1.634698,2.32032 1.634765,3.90235 -6.7e-5,1.58203 -0.544989,2.88281 -1.634765,3.90234 -1.089909,0.98438 -2.93561,1.47656 -5.53711,1.47656 l -10.283203,0 0,-34.11914 c -5e-5,-1.65231 -0.298878,-2.79488 -0.896484,-3.42773 -0.597705,-0.63278 -1.511767,-0.94918 -2.742188,-0.94922 -1.195357,4e-5 -2.302778,0.31644 -3.322265,0.94922 -1.300823,0.87894 -2.882853,2.53128 -4.746094,4.95703 l 0,21.7793 c 2.249959,1e-5 3.91988,0.50977 5.009766,1.52929 1.089799,1.01954 1.63472,2.32032 1.634765,3.90235 -4.5e-5,1.58203 -0.544966,2.88281 -1.634765,3.90234 -1.089886,0.98438 -2.935588,1.47656 -5.53711,1.47656 l -10.283203,0 0,-34.11914 c -2.7e-5,-1.61715 -0.316433,-2.74215 -0.949219,-3.375 -0.597682,-0.66793 -1.511743,-1.00191 -2.742187,-1.00195 -1.265648,4e-5 -2.513692,0.40433 -3.744142,1.21289 -1.23049,0.77347 -2.70705,2.33792 -4.42969,4.69336 l 0,21.7793 c 2.24999,1e-5 3.91991,0.50977 5.00977,1.52929 1.124978,1.01954 1.687477,2.32032 1.687499,3.90235 -2.2e-5,1.58203 -0.562521,2.88281 -1.687499,3.90234 -1.08986,0.98438 -2.93557,1.47656 -5.53711,1.47656 l -9.75586,0 c -2.60156,0 -4.44727,-0.49218 -5.53711,-1.47656 -1.125,-1.01953 -1.6875,-2.33789 -1.6875,-3.95508 0,-1.58202 0.54492,-2.86522 1.63477,-3.84961 1.08984,-1.01952 2.77734,-1.52928 5.0625,-1.52929 l 0,-26.26172 c -2.28516,3e-5 -3.97266,-0.50973 -5.0625,-1.5293 -1.08985,-1.01949 -1.63477,-2.32027 -1.63477,-3.90234 0,-1.58199 0.5625,-2.86519 1.6875,-3.84961 1.08984,-1.01949 2.93555,-1.52925 5.53711,-1.5293 l 10.2832,0"
       id="path2928"
       style="font-size:108px;font-variant:normal;font-weight:bold;font-stretch:normal;text-align:start;line-height:125%;writing-mode:lr-tb;text-anchor:start;fill:#d6d4a3;fill-opacity:1;font-family:Courier New;-inkscape-font-specification:Courier New Bold" />
    <path
       d="m -14.607422,-182.81789 0,-2.53125 c -2.707071,1.44141 -5.695349,2.51367 -8.964844,3.2168 -3.269561,0.73828 -6.240261,1.10742 -8.912109,1.10742 -5.8008,0 -10.511732,-1.5293 -14.132812,-4.58789 -3.621101,-3.09374 -5.431646,-6.5039 -5.431641,-10.23047 -5e-6,-4.53514 2.302727,-8.7363 6.908203,-12.60351 4.640609,-3.90232 11.03904,-5.85349 19.195313,-5.85352 3.269497,3e-5 7.04879,0.35159 11.33789,1.05469 l 0,-2.58399 c -4.2e-5,-1.61715 -0.703166,-2.93551 -2.109375,-3.95507 -1.371132,-1.0195 -4.007848,-1.52926 -7.910156,-1.5293 -3.199248,4e-5 -7.347681,0.63285 -12.445313,1.89844 -1.898455,0.45706 -3.375016,0.68558 -4.429687,0.68554 -1.44142,4e-5 -2.671888,-0.50973 -3.691406,-1.52929 -0.984386,-1.05465 -1.476573,-2.39059 -1.476563,-4.00782 -1e-5,-0.91402 0.175771,-1.70503 0.527344,-2.37304 0.351551,-0.66793 0.843738,-1.19527 1.476562,-1.58203 0.6328,-0.42183 1.951158,-0.91402 3.955079,-1.47657 2.671856,-0.73823 5.396462,-1.31831 8.173828,-1.74023 2.777316,-0.45698 5.290986,-0.6855 7.541015,-0.68555 6.714806,5e-5 11.917925,1.45903 15.6093752,4.37695 3.7265115,2.88286 5.5897909,6.83793 5.5898438,11.86524 l 0,22.25391 1.8457031,0 c 2.60150513,1e-5 4.4472064,0.50977 5.5371094,1.52929 1.1249385,0.98439 1.687438,2.28517 1.6875,3.90235 -6.2e-5,1.58203 -0.5625615,2.88281 -1.6875,3.90234 -1.089903,0.98438 -2.93560427,1.47656 -5.5371094,1.47656 l -12.6562501,0 m 0,-19.35351 c -4.324256,-0.84373 -8.314487,-1.26561 -11.970703,-1.26563 -4.394557,2e-5 -8.17385,1.07229 -11.337891,3.2168 -1.968766,1.37111 -2.95314,2.75978 -2.953125,4.16601 -1.5e-5,1.01955 0.474593,1.84572 1.423829,2.47852 1.757793,1.16017 4.165994,1.74024 7.224609,1.74023 2.601535,10e-6 5.537079,-0.50975 8.806641,-1.52929 3.30465,-1.01952 6.240194,-2.40819 8.80664,-4.16602 l 0,-4.64062"
       id="path2930"
       style="font-size:108px;font-variant:normal;font-weight:bold;font-stretch:normal;text-align:start;line-height:125%;writing-mode:lr-tb;text-anchor:start;fill:#d6d4a3;fill-opacity:1;font-family:Courier New;-inkscape-font-specification:Courier New Bold" />
    <path
       d="m 44.296875,-251.21437 0,11.44336 -12.867188,0 0,-11.44336 12.867188,0 m 1.476562,20.51367 0,37.07227 12.972657,0 c 2.601509,1e-5 4.44721,0.50977 5.537109,1.52929 1.124943,0.98439 1.687442,2.28517 1.6875,3.90235 -5.8e-5,1.58203 -0.562557,2.88281 -1.6875,3.90234 -1.089899,0.98438 -2.9356,1.47656 -5.537109,1.47656 l -36.75586,0 c -2.601573,0 -4.464853,-0.49218 -5.589843,-1.47656 -1.089851,-1.01953 -1.634773,-2.33789 -1.634766,-3.95508 -7e-6,-1.58202 0.544915,-2.86522 1.634766,-3.84961 1.12499,-1.01952 2.98827,-1.52928 5.589843,-1.52929 l 12.972657,0 0,-26.26172 -8.701172,0 c -2.566422,3e-5 -4.412123,-0.49215 -5.53711,-1.47657 -1.125011,-1.01949 -1.687511,-2.33785 -1.6875,-3.95507 -1.1e-5,-1.58199 0.544911,-2.86519 1.634766,-3.84961 1.124986,-1.01949 2.988266,-1.52925 5.589844,-1.5293 l 19.511718,0"
       id="path2932"
       style="font-size:108px;font-variant:normal;font-weight:bold;font-stretch:normal;text-align:start;line-height:125%;writing-mode:lr-tb;text-anchor:start;fill:#d6d4a3;fill-opacity:1;font-family:Courier New;-inkscape-font-specification:Courier New Bold" />
    <path
       d="m 94.236328,-230.7007 0,3.63867 c 1.968727,-1.68745 4.130834,-2.95308 6.486332,-3.79687 2.39059,-0.8437 4.97457,-1.26558 7.75195,-1.26563 6.39839,5e-5 11.46089,1.98638 15.1875,5.95899 2.95307,3.1641 4.42963,7.31253 4.42969,12.44531 l 0,20.0918 c 2.2851,1e-5 3.97259,0.50977 5.0625,1.52929 1.08978,0.98439 1.6347,2.28517 1.63476,3.90235 -6e-5,1.58203 -0.56256,2.88281 -1.6875,3.90234 -1.0899,0.98438 -2.9356,1.47656 -5.53711,1.47656 l -9.75586,0 c -2.6016,0 -4.46488,-0.49218 -5.58984,-1.47656 -1.08988,-1.01953 -1.6348,-2.33789 -1.63477,-3.95508 -3e-5,-1.58202 0.54489,-2.86522 1.63477,-3.84961 1.0898,-1.01952 2.7773,-1.52928 5.0625,-1.52929 l 0,-20.40821 c -4e-5,-2.35543 -0.63286,-4.07809 -1.89844,-5.16797 -1.65238,-1.40621 -4.1309,-2.10933 -7.43554,-2.10937 -2.49613,4e-5 -4.69339,0.49222 -6.5918,1.47656 -1.863309,0.94926 -4.236354,2.98832 -7.119142,6.11719 l 0,20.0918 c 2.77732,1e-5 4.570287,0.26368 5.378906,0.79101 1.722626,1.0547 2.583956,2.60157 2.583986,4.64063 -3e-5,1.58203 -0.56253,2.88281 -1.6875,3.90234 -1.089872,0.98438 -2.935573,1.47656 -5.537111,1.47656 l -12.287109,0 c -2.60157,0 -4.464849,-0.49218 -5.589844,-1.47656 -1.089847,-1.01953 -1.634768,-2.33789 -1.634765,-3.95508 -3e-6,-1.96874 0.843746,-3.49804 2.53125,-4.58789 0.843744,-0.52733 2.654289,-0.791 5.43164,-0.79101 l 0,-26.26172 c -2.285164,3e-5 -3.972663,-0.50973 -5.0625,-1.5293 -1.089848,-1.01949 -1.634769,-2.32027 -1.634765,-3.90234 -4e-6,-1.58199 0.544917,-2.86519 1.634765,-3.84961 1.124994,-1.01949 2.988273,-1.52925 5.589844,-1.5293 l 10.283203,0"
       id="path2934"
       style="font-size:108px;font-variant:normal;font-weight:bold;font-stretch:normal;text-align:start;line-height:125%;writing-mode:lr-tb;text-anchor:start;fill:#d6d4a3;fill-opacity:1;font-family:Courier New;-inkscape-font-specification:Courier New Bold" />
    <path
       d="m 166.06055,-209.07961 c -3e-5,-6.15231 1.0195,-12.37496 3.05859,-18.66797 1.51169,-4.64057 3.84957,-9.80853 7.01367,-15.5039 2.28512,-4.07806 3.97262,-6.57415 5.0625,-7.48828 1.0898,-0.94915 2.30269,-1.42376 3.63867,-1.42383 1.54683,7e-5 2.84761,0.52741 3.90235,1.58203 1.05463,1.05475 1.58198,2.32038 1.58203,3.79688 -5e-5,1.01959 -0.42193,2.23248 -1.26563,3.63867 -3.79692,6.22271 -6.57426,12.05864 -8.33203,17.50781 -1.72269,5.44926 -2.58402,10.96878 -2.58398,16.55859 -4e-5,5.62502 0.86129,11.16213 2.58398,16.61133 1.75777,5.44922 4.53511,11.28516 8.33203,17.50781 0.8437,1.37109 1.26558,2.58398 1.26563,3.63868 -5e-5,1.47655 -0.5274,2.74217 -1.58203,3.79687 -1.05474,1.05467 -2.35552,1.58202 -3.90235,1.58203 -1.30082,-1e-5 -2.4434,-0.42189 -3.42773,-1.26562 -1.40629,-1.23049 -3.26957,-3.99025 -5.58984,-8.2793 -3.33988,-6.22266 -5.62504,-11.35546 -6.85547,-15.39844 -1.93363,-6.18748 -2.90042,-12.25193 -2.90039,-18.19336"
       id="path2936"
       style="font-size:108px;font-variant:normal;font-weight:bold;font-stretch:normal;text-align:start;line-height:125%;writing-mode:lr-tb;text-anchor:start;fill:#d6d4a3;fill-opacity:1;font-family:Courier New;-inkscape-font-specification:Courier New Bold" />
    <path
       d="m 239.30859,-209.07961 c -3e-5,6.15237 -1.01956,12.3926 -3.05859,18.72071 -1.51175,4.64062 -3.84964,9.79101 -7.01367,15.45117 -2.28518,4.07811 -3.97268,6.59178 -5.0625,7.54101 -1.08987,0.94921 -2.30276,1.42382 -3.63867,1.42383 -1.5469,-1e-5 -2.84768,-0.52736 -3.90235,-1.58203 -1.0547,-1.0547 -1.58204,-2.32032 -1.58203,-3.79687 -1e-5,-1.0547 0.42186,-2.26759 1.26563,-3.63868 3.79685,-6.22265 6.55662,-12.05859 8.27929,-17.50781 1.75779,-5.4492 2.6367,-10.98631 2.63672,-16.61133 -2e-5,-5.58981 -0.87893,-11.10933 -2.63672,-16.55859 -1.72267,-5.44917 -4.48244,-11.2851 -8.27929,-17.50781 -0.84377,-1.40619 -1.26564,-2.61908 -1.26563,-3.63867 -1e-5,-1.4765 0.52733,-2.74213 1.58203,-3.79688 1.05467,-1.05462 2.35545,-1.58196 3.90235,-1.58203 1.30076,7e-5 2.44333,0.42194 3.42773,1.26562 1.40623,1.19538 3.26951,3.95515 5.58984,8.2793 3.33982,6.22271 5.62497,11.33794 6.85547,15.3457 1.93356,6.2227 2.90036,12.28715 2.90039,18.19336"
       id="path2938"
       style="font-size:108px;font-variant:normal;font-weight:bold;font-stretch:normal;text-align:start;line-height:125%;writing-mode:lr-tb;text-anchor:start;fill:#d6d4a3;fill-opacity:1;font-family:Courier New;-inkscape-font-specification:Courier New Bold" />
  </g>
  <g
     transform="translate(0,20)"
     id="text2903"
     style="font-size:40px;font-style:normal;font-weight:normal;line-height:125%;fill:#000000;fill-opacity:1;stroke:none;font-family:Bitstream Vera Sans">
    <path
       d="m 122.63613,270.72268 c 3.51553,4.00397 5.9081,7.91022 7.17773,11.71875 1.26943,3.71099 1.9042,9.76567 1.9043,18.16406 l 0,47.7539 c -1e-4,4.0039 0.73232,6.83593 2.19727,8.4961 1.56239,1.7578 4.39442,2.78319 8.49609,3.07617 4.10144,0.39061 7.47058,2.00194 10.10742,4.83398 2.63659,2.83201 3.95495,6.29881 3.95508,10.4004 -1.3e-4,4.29683 -1.5138,7.91011 -4.54101,10.83984 -2.92981,2.92964 -6.68958,4.39448 -11.2793,4.39453 -6.54308,-5e-5 -12.8419,-1.75786 -18.89649,-5.27344 -6.05477,-3.418 -11.32821,-9.03323 -15.82031,-16.8457 -2.83211,-5.07814 -4.24812,-10.98634 -4.24805,-17.72461 l 0,-52.88086 c -7e-5,-4.19917 -0.68367,-7.08002 -2.05078,-8.64258 -1.36726,-1.56244 -4.29694,-2.58783 -8.789061,-3.07617 -4.49225,-0.58588 -7.95904,-2.1972 -10.40039,-4.83398 -2.3438,-2.63666 -3.51568,-6.10345 -3.51563,-10.40039 -5e-5,-4.39446 1.17183,-7.91008 3.51563,-10.54688 2.44135,-2.63663 5.90814,-4.19913 10.40039,-4.6875 4.589771,-0.58585 7.372971,-1.51358 8.349611,-2.7832 1.66008,-1.95303 2.49016,-4.98038 2.49023,-9.08203 l 0,-50.09766 c -7e-5,-10.74203 3.90617,-20.01936 11.71875,-27.83203 7.81241,-7.90997 16.8456,-11.86505 27.09961,-11.86524 4.68739,1.9e-4 8.49598,1.46504 11.42579,4.39454 3.02721,2.92987 4.54088,6.54314 4.54101,10.83984 -1.3e-4,4.00408 -1.31849,7.42204 -3.95508,10.25391 -2.63684,2.83219 -6.0548,4.44352 -10.2539,4.83398 -4.19933,0.39078 -6.83605,1.26969 -7.91016,2.63672 -1.75792,2.05094 -2.63682,5.07828 -2.63672,9.08203 l 0,47.75391 c -1e-4,6.73837 -0.6837,11.96298 -2.05078,15.67382 -1.26963,3.61337 -3.61338,7.42196 -7.03125,11.42579"
       id="path2912"
       style="font-size:300px;font-variant:normal;font-weight:bold;font-stretch:normal;text-align:start;writing-mode:lr-tb;text-anchor:start;fill:#402000;fill-opacity:1;font-family:Courier New;-inkscape-font-specification:Courier New Bold" />
    <path
       d="m 384.12677,270.72269 c -3.51553,4.00397 -5.9081,7.91022 -7.17773,11.71875 -1.26943,3.71099 -1.9042,9.76567 -1.9043,18.16406 l 0,47.7539 c 1e-4,4.0039 -0.73232,6.83593 -2.19727,8.4961 -1.56239,1.7578 -4.39442,2.78319 -8.49609,3.07617 -4.10144,0.39061 -7.47058,2.00194 -10.10742,4.83398 -2.63659,2.83201 -3.95495,6.29881 -3.95508,10.4004 1.3e-4,4.29683 1.5138,7.91011 4.54101,10.83984 2.92981,2.92964 6.68958,4.39448 11.2793,4.39453 6.54308,-5e-5 12.8419,-1.75786 18.89649,-5.27344 6.05477,-3.418 11.32821,-9.03323 15.82031,-16.8457 2.83211,-5.07814 4.24812,-10.98634 4.24805,-17.72461 l 0,-52.88086 c 7e-5,-4.19917 0.68367,-7.08002 2.05078,-8.64258 1.36726,-1.56244 4.29694,-2.58783 8.78906,-3.07617 4.49225,-0.58588 7.95904,-2.1972 10.40039,-4.83398 2.3438,-2.63666 3.51568,-6.10345 3.51563,-10.40039 5e-5,-4.39446 -1.17183,-7.91008 -3.51563,-10.54688 -2.44135,-2.63663 -5.90814,-4.19913 -10.40039,-4.6875 -4.58977,-0.58585 -7.37297,-1.51358 -8.34961,-2.7832 -1.66008,-1.95303 -2.49016,-4.98038 -2.49023,-9.08203 l 0,-50.09767 c 7e-5,-10.74203 -3.90617,-20.01936 -11.71875,-27.83203 -7.81241,-7.90997 -16.8456,-11.86505 -27.09961,-11.86524 -4.68739,1.9e-4 -8.49598,1.46504 -11.42579,4.39454 -3.02721,2.92987 -4.54088,6.54314 -4.54101,10.83984 1.3e-4,4.00408 1.31849,7.42204 3.95508,10.25391 2.63684,2.83219 6.0548,4.44352 10.2539,4.83398 4.19933,0.39078 6.83605,1.26969 7.91016,2.63672 1.75792,2.05094 2.63682,5.07828 2.63672,9.08203 l 0,47.75392 c 1e-4,6.73837 0.6837,11.96298 2.05078,15.67382 1.26963,3.61337 3.61338,7.42196 7.03125,11.42579"
       id="path2914"
       style="font-size:300px;font-variant:normal;font-weight:bold;font-stretch:normal;text-align:start;writing-mode:lr-tb;text-anchor:start;fill:#402000;fill-opacity:1;font-family:Courier New;-inkscape-font-specification:Courier New Bold" />
    <g
       transform="translate(344.50011,491.05085)"
       id="g2922"
       style="fill:#402000;fill-opacity:1">
      <path
         d="m -123.66102,-163.79662 a 18.440678,18.440678 0 1 1 -36.88136,0 18.440678,18.440678 0 1 1 36.88136,0 z"
         id="path2916"
         style="fill:#402000;fill-opacity:1" />
      <path
         d="m -123.66102,-163.79662 a 18.440678,18.440678 0 1 1 -36.88136,0 18.440678,18.440678 0 1 1 36.88136,0 z"
         transform="translate(49.898305,0)"
         id="path2918"
         style="fill:#402000;fill-opacity:1" />
      <path
         d="m -123.66102,-163.79662 a 18.440678,18.440678 0 1 1 -36.88136,0 18.440678,18.440678 0 1 1 36.88136,0 z"
         transform="translate(101.9661,0)"
         id="path2920"
         style="fill:#402000;fill-opacity:1" />
    </g>
  </g>
</svg>
