<?xml version="1.0" encoding="UTF-8" standalone="no"?>
<!-- Created with Inkscape (http://www.inkscape.org/) -->
<svg
   xmlns:svg="http://www.w3.org/2000/svg"
   xmlns="http://www.w3.org/2000/svg"
   version="1.0"
   width="512"
   height="512"
   id="svg3348">
  <defs
     id="defs3350" />
  <g
     transform="translate(-122.85715,-268.93362)"
     style="fill:#402000;fill-opacity:1;stroke:none;stroke-opacity:1"
     id="layer1">
    <rect
       width="512"
       height="512"
       ry="90"
       x="122.85715"
       y="268.93362"
       style="opacity:1;fill:#402000;fill-opacity:1;fill-rule:nonzero;stroke:none;stroke-opacity:1"
       id="rect3356" />
  </g>
  <g
     transform="matrix(0.9277344,0,0,0.9277344,-95.478811,-230.99898)"
     style="fill:#7a6941;fill-opacity:1"
     id="g3975">
    <rect
       width="512"
       height="512"
       ry="90"
       x="122.85715"
       y="268.93362"
       style="opacity:1;fill:#7a6941;fill-opacity:1;fill-rule:nonzero;stroke:none;stroke-width:3.8810041;stroke-miterlimit:4;stroke-dasharray:none;stroke-opacity:1"
       id="rect3977" />
  </g>
  <g
     transform="matrix(0.7379166,0,0,0.7379166,67.093348,68.092862)"
     id="g3205">
    <path
       d="M 287.25,0.55175265 L 248.875,49.270503 L 207.1875,3.3330026 L 185.75,61.520503 L 131.9375,30.708003 L 129.5,92.676753 L 68.8125,80.020503 L 85.65625,139.67675 L 24,146.3955 L 58.46875,197.958 L 1.90625,223.3955 L 50.625,261.7705 L 4.6875,303.458 L 62.875,324.8955 L 32.0625,378.708 L 94.03125,381.1455 L 81.375,441.833 L 141.03125,424.98925 L 147.75,486.6455 L 199.3125,452.17675 L 224.75,508.73925 L 263.125,460.0205 L 304.8125,505.958 L 326.25,447.7705 L 380.0625,478.583 L 382.5,416.61425 L 443.1875,429.2705 L 426.34375,369.61425 L 488,362.8955 L 453.53125,311.333 L 510.09375,285.8955 L 461.375,247.5205 L 507.3125,205.833 L 449.125,184.3955 L 479.9375,130.583 L 417.96875,128.1455 L 430.625,67.458003 L 370.96875,84.301753 L 364.25,22.645503 L 312.6875,57.114253 L 287.25,0.55175265 z "
       style="fill:#402000;fill-opacity:1;fill-rule:nonzero;stroke:none;stroke-width:3.50200009;stroke-miterlimit:4;stroke-dasharray:none;stroke-opacity:1"
       id="path3193" />
    <g
       transform="translate(0,-2.7089947)"
       id="g3201">
      <path
         d="M 299.60462,97.286112 C 302.95818,97.21794 306.54388,97.774441 310.36458,98.983025 C 319.09726,101.74607 324.8965,106.55213 327.79651,113.36822 C 330.74459,120.03165 330.6482,128.40188 327.44941,138.51337 C 326.18902,142.49704 324.80223,146.38878 323.28426,150.1218 C 321.96758,153.75056 320.50051,157.23365 318.92628,160.6118 L 239.28708,334.89245 L 229.87693,331.92285 L 267.9032,144.49113 C 268.50978,140.97539 269.27315,137.23433 270.17861,133.30694 C 271.28545,129.27531 272.43769,125.33615 273.64957,121.50568 C 276.84841,111.39421 281.59756,104.47379 287.84193,100.7185 C 291.38148,98.520305 295.29288,97.373759 299.60462,97.286112 z "
         style="fill:#d6d4a3;fill-opacity:1;fill-rule:nonzero;stroke:none;stroke-width:3.50200009;stroke-miterlimit:4;stroke-dasharray:none;stroke-opacity:1"
         id="path3191" />
      <path
         d="M 216.96194,354.36014 C 219.71334,354.35364 222.45732,354.79896 225.2151,355.67139 C 232.72221,358.0464 238.37497,362.83477 242.14567,370.09515 C 245.91616,377.35554 246.60313,384.7635 244.22824,392.27071 C 241.90161,399.62468 237.02516,405.13203 229.61165,408.85418 C 222.39962,412.47154 215.1371,413.14755 207.78318,410.82105 C 200.73554,408.59142 195.23916,403.82184 191.31542,396.51299 C 187.59323,389.09936 186.84892,381.84781 189.07858,374.80023 C 191.40505,367.44623 196.12512,361.88157 203.23237,358.0625 C 207.80038,355.61013 212.37625,354.37099 216.96194,354.36014 z "
         style="fill:#d6d4a3;fill-opacity:1;fill-rule:nonzero;stroke:none;stroke-width:3.50200009;stroke-miterlimit:4;stroke-dasharray:none;stroke-opacity:1"
         id="path3490" />
    </g>
  </g>
</svg>
