<?xml version="1.0" encoding="UTF-8" standalone="no"?>
<!-- Created with Inkscape (http://www.inkscape.org/) -->

<svg
   xmlns:svg="http://www.w3.org/2000/svg"
   xmlns="http://www.w3.org/2000/svg"
   version="1.0"
   width="512"
   height="512"
   id="svg3348">
  <defs
     id="defs3350" />
  <g
     transform="translate(-122.85715,-268.93362)"
     id="layer1"
     style="fill:#402000;fill-opacity:1;stroke:none">
    <rect
       width="512"
       height="512"
       ry="90"
       x="122.85715"
       y="268.93362"
       id="rect3356"
       style="fill:#402000;fill-opacity:1;fill-rule:nonzero;stroke:none" />
  </g>
  <g
     transform="matrix(0.9277344,0,0,0.9277344,-95.478812,-230.99898)"
     id="g3975"
     style="fill:#7a6941;fill-opacity:1">
    <rect
       width="512"
       height="512"
       ry="90"
       x="122.85715"
       y="268.93362"
       id="rect3977"
       style="fill:#7a6941;fill-opacity:1;fill-rule:nonzero;stroke:none" />
  </g>
  <g
     id="g4671">
    <path
       d="m 234.02105,433.34599 c -15.05976,-1.69373 -41.31879,-9.5787 -55.76516,-16.74497 -57.06721,-28.30875 -95.090931,-84.60777 -98.928441,-146.47631 -2.522373,-40.66562 7.246794,-77.21215 29.560491,-110.58604 25.88601,-38.71689 65.96,-65.38705 113.04455,-75.233757 9.84596,-2.05907 14.89723,-2.414589 34.28635,-2.413154 19.71974,0.0011 24.31353,0.336347 34.59532,2.521983 21.28821,4.525318 41.36798,12.446091 58.52711,23.086908 88.22779,54.71231 110.77023,172.10361 49.08856,255.63209 -7.84267,10.62043 -25.53522,28.37565 -35.97254,36.09997 -31.7818,23.52062 -67.53827,35.10336 -107.15816,34.71218 -9.61852,-0.0949 -19.19365,-0.36446 -21.27808,-0.5989 z"
       id="path4669"
       style="fill:#402000;fill-opacity:1" />
    <path
       d="m 276.7924,407.73763 c 7.91721,-8.28378 10.77834,-10.30268 14.60064,-10.30268 3.76188,0 8.60195,-3.09081 9.32307,-5.95358 0.5569,-2.21083 1.33308,-2.67763 4.45225,-2.67763 3.19156,0 4.95683,-1.13005 11.37623,-7.28257 4.17915,-4.00542 9.48024,-10.03075 11.7802,-13.38961 3.49271,-5.10077 5.63944,-6.87848 13.02864,-10.789 4.86579,-2.57509 9.79555,-5.95099 10.95502,-7.502 1.15946,-1.55101 2.78498,-6.03737 3.61225,-9.96968 1.95452,-9.2905 6.26459,-18.47686 10.42879,-22.22768 2.14878,-1.93546 3.41564,-6.57441 2.22259,-8.13863 -1.64156,-2.15227 -9.59159,-5.07752 -15.4265,-5.67627 -4.70114,-0.4824 -6.58009,-1.26279 -8.84073,-3.67184 -2.41794,-2.57667 -3.73161,-3.05924 -8.32794,-3.05924 -3.00144,0 -5.76246,-0.49219 -6.1356,-1.09375 -0.37313,-0.60156 -1.65253,-4.59622 -2.84311,-8.87702 -1.19058,-4.2808 -2.67915,-8.40091 -3.30793,-9.15581 -0.62878,-0.75489 -3.3981,-1.37985 -6.15404,-1.38878 -7.38818,-0.024 -12.58868,-2.2426 -16.37032,-6.98396 -5.46633,-6.85359 -8.45968,-8.1044 -19.39493,-8.1044 -8.48229,0 -9.75832,-0.25646 -11.07272,-2.22548 -0.95077,-1.42431 -3.11764,-2.44316 -6.01899,-2.83014 -7.37193,-0.98326 -11.94287,0.42192 -16.46053,5.06021 l -4.09086,4.20011 -6.40694,-1.52447 c -3.52381,-0.83846 -7.86874,-1.54357 -9.65539,-1.56693 -1.78665,-0.0233 -4.75875,-0.96009 -6.60468,-2.08164 -2.75624,-1.67464 -3.48292,-2.96022 -4.06498,-7.19149 -0.50608,-3.67888 -0.25914,-5.83604 0.86352,-7.54322 0.86475,-1.31501 1.2728,-2.68933 0.90676,-3.05404 -0.36603,-0.36471 -3.41046,-0.66311 -6.76541,-0.66311 -9.24731,0 -11.1009,-3.44294 -5.88839,-10.93739 5.15808,-7.41616 -0.84541,-8.98633 -7.68293,-2.00941 -3.78827,3.86548 -4.77857,4.3156 -9.49491,4.3156 -7.02733,0 -8.73198,-1.10222 -11.45358,-7.40586 -2.03017,-4.70219 -2.20854,-6.45376 -1.50545,-14.78422 l 0.79757,-9.45007 6.82009,-3.72571 c 6.4988,-3.5502 7.04048,-3.66423 11.49863,-2.42053 4.01284,1.11945 5.18848,1.04243 8.26223,-0.54132 7.0749,-3.64534 19.73269,-0.0745 21.05864,5.94061 0.74607,3.3845 4.48997,6.85925 6.23364,5.78549 1.44175,-0.88782 -0.003,-7.34341 -2.64107,-11.79774 -3.08079,-5.20265 -1.38175,-8.37479 5.74975,-10.73493 6.50493,-2.15277 10.69426,-6.82738 10.69426,-11.93307 0,-2.86351 0.56098,-3.93383 2.43634,-4.64845 1.33999,-0.51061 3.36458,-1.95511 4.49911,-3.21 1.13451,-1.25489 3.22755,-2.28161 4.65119,-2.28161 2.85777,0 7.9041,-4.3926 7.9041,-6.88015 0,-2.32711 6.72981,-4.14245 13.82773,-3.72996 4.95399,0.28789 6.20442,0.0344 6.20442,-1.2578 0,-0.94279 -0.79102,-1.48601 -1.89493,-1.30133 -1.49746,0.25053 -1.89493,-0.45725 -1.89493,-3.37432 0,-2.03024 0.73557,-4.2996 1.63459,-5.04302 2.37775,-1.96623 9.20382,-0.72929 14.2169,2.5762 3.9422,2.59939 16.14568,5.82994 17.37935,4.60073 1.24548,-1.24098 -1.09449,-5.05653 -3.4645,-5.64921 -1.89619,-0.47419 -2.66122,-1.5114 -2.90558,-3.93931 -0.29564,-2.93742 -1.35291,-3.83521 -9.72697,-8.25977 -5.16741,-2.73027 -10.52736,-6.02052 -11.91101,-7.31167 -3.01406,-2.81255 -7.93862,-4.23902 -8.95842,-2.59493 -1.02392,1.65073 -7.67345,1.45055 -9.1101,-0.27425 -0.65995,-0.79231 -3.27777,-2.03026 -5.8174,-2.751 -2.53961,-0.72073 -6.96763,-2.04707 -9.84005,-2.94742 -4.73938,-1.48554 -5.47108,-1.47475 -7.90862,0.11662 -3.21394,2.09823 -4.27292,4.40476 -2.85891,6.22693 2.49426,3.21426 2.43068,5.17361 -0.20019,6.17026 -1.90735,0.72254 -2.70649,1.9524 -2.95707,4.55078 -0.48611,5.04075 -4.97966,5.55667 -9.02232,1.03589 -3.432,-3.83791 -9.50522,-5.56069 -19.68313,-5.58351 -8.41852,-0.0189 -9.90618,-0.64478 -10.32189,-4.34275 -0.22593,-2.00984 0.26887,-2.7278 2.05658,-2.98411 1.29475,-0.18563 3.12278,-1.50646 4.0623,-2.93515 1.61414,-2.45457 2.3787,-2.61443 13.88187,-2.90268 l 12.17366,-0.30504 2.02902,-4.3156 c 2.23451,-4.75267 3.5877,-6.00059 5.65126,-5.21161 2.3725,0.90712 5.8676,-1.73273 5.8676,-4.431806 0,-1.625536 1.4768,-3.796887 4.06057,-5.970289 l 4.06057,-3.415662 -10.55049,0.63504 c -29.33813,1.765873 -54.33367,10.557307 -80.15803,28.193167 -18.96689,12.95281 -30.79497,23.23653 -38.21361,33.22421 l -3.10678,4.18264 3.62361,-0.79301 3.6236,-0.79299 1.47994,13.79655 c -0.35842,4.95975 -3.09788,7.88651 -3.48232,12.34473 l -0.699,8.10586 4.48239,5.65011 c 3.60853,4.54861 5.11079,5.65013 7.70567,5.65013 2.09229,0 3.22328,0.54834 3.22328,1.56276 0,0.85952 1.21817,2.87243 2.70704,4.47314 1.48888,1.60071 2.70705,3.47461 2.70705,4.16424 0,0.68961 1.93755,2.68211 4.30568,4.42777 3.97446,2.92979 4.30765,3.57456 4.33127,8.38171 0.0208,4.22894 0.58783,5.76797 3.01691,8.18825 3.22666,3.21498 13.12532,6.9176 23.53776,8.80436 3.5733,0.64748 7.47144,2.04114 8.66254,3.097 1.1911,1.05586 5.75868,3.26527 10.15018,4.90979 6.2025,2.32272 8.37752,3.71556 9.74537,6.24076 2.65249,4.89684 7.6674,10.40361 11.07175,12.1577 1.66867,0.85978 5.69827,1.56324 8.95466,1.56324 9.17216,0 9.34697,0.16873 9.34176,9.01636 -0.004,7.71477 -1.52283,12.20793 -6.8315,20.21673 -1.70619,2.574 -1.71987,3.12472 -0.16929,6.82232 0.92769,2.21226 1.4274,4.83635 1.11046,5.83133 -0.77194,2.42339 7.7419,19.71265 13.47981,27.37373 3.64317,4.86424 5.70973,6.5416 9.91644,8.04884 7.56546,2.71065 8.73131,4.41769 9.27603,13.58188 0.37873,6.37172 -0.0544,9.39007 -2.32787,16.223 -1.53624,4.61714 -2.79316,10.13435 -2.79316,12.26045 0,2.1261 -1.05884,5.74278 -2.35298,8.03705 -2.08638,3.69878 -2.22025,4.74936 -1.18148,9.27234 1.03867,4.52253 0.92544,5.41192 -0.99856,7.8434 l -2.17006,2.74246 3.08083,0.70435 c 1.69446,0.38739 5.02991,0.48449 7.41211,0.21576 3.70528,-0.41797 5.42678,-1.63482 11.91101,-8.41928 z"
       id="path4667"
       style="fill:#d6d4a3;fill-opacity:1" />
    <path
       d="m 212.02629,159.38009 c -0.40943,-0.40796 -0.74443,-2.86084 -0.74443,-5.45083 0,-5.12296 -2.01008,-7.00853 -4.91265,-4.60834 -1.9962,1.65072 -2.964,0.91437 -2.01995,-1.53687 1.68747,-4.38157 12.34669,-6.3522 12.34669,-2.28261 0,2.26202 6.31776,3.61992 10.68194,2.2959 3.12421,-0.94784 3.86273,-0.80685 5.18069,0.98904 1.34864,1.8377 1.31089,2.25924 -0.30787,3.43863 -1.72399,1.25604 -1.72643,1.47463 -0.0373,3.33434 2.47452,2.72442 2.27624,3.43864 -0.95467,3.43864 -2.12224,0 -3.12158,-0.85679 -4.31288,-3.69763 -2.75684,-6.5742 -9.41087,-6.48329 -10.98532,0.15007 -0.91384,3.8501 -2.46206,5.39652 -3.93425,3.92966 z"
       id="path4665"
       style="fill:#d6d4a3;fill-opacity:1" />
    <path
       d="m 423.50397,266.91724 c 2.7333,-1.72183 1.70899,-28.71434 -1.65586,-43.63439 -3.21596,-14.25989 -5.73605,-22.20776 -7.04158,-22.20776 -2.43248,0 -3.37019,9.87594 -3.01358,31.73902 0.34172,20.95116 0.56575,23.16802 2.83984,28.10219 3.18034,6.90048 5.2359,8.29096 8.87118,6.00094 z"
       id="path4663"
       style="fill:#d6d4a3;fill-opacity:1" />
    <path
       d="m 268.35005,231.75847 c 2.26288,-2.25468 1.70464,-2.63197 -3.89422,-2.63197 -3.76942,0 -5.4827,0.47893 -5.93747,1.65976 -1.34204,3.48464 6.52897,4.26297 9.83169,0.97221 z"
       id="path4661"
       style="fill:#d6d4a3;fill-opacity:1" />
    <path
       d="m 240.73453,232.14742 c -1.01063,-1.00697 -1.58814,-1.00697 -2.59877,0 -1.01062,1.00697 -0.72188,1.29468 1.29939,1.29468 2.02126,0 2.31001,-0.28771 1.29938,-1.29468 z"
       id="path4659"
       style="fill:#d6d4a3;fill-opacity:1" />
    <path
       d="m 247.01488,226.96869 c 0,-1.44964 -0.72188,-2.1578 -2.19962,-2.1578 -1.2098,0 -2.45666,-0.66741 -2.77083,-1.48315 -0.31416,-0.81572 -2.6134,-2.33818 -5.1094,-3.38324 -2.49602,-1.04504 -6.07738,-2.56415 -7.95858,-3.3758 -3.63715,-1.56926 -6.86641,-1.02138 -6.86641,1.16495 0,2.13873 1.31433,2.83441 2.89127,1.5304 1.72987,-1.43046 9.5109,2.08009 15.28363,6.89547 4.19914,3.50276 6.72994,3.80705 6.72994,0.80917 z"
       id="path4657"
       style="fill:#d6d4a3;fill-opacity:1" />
    <path
       d="m 348.79986,117.9346 c -12.74234,-8.53283 -22.21839,-13.5942 -32.18738,-17.19203 l -6.74112,-2.432879 -3.85403,3.371639 c -2.11973,1.8544 -3.42604,3.37164 -2.90292,3.37164 0.52311,0 3.83979,2.79165 7.3704,6.20368 10.9088,10.54238 18.83897,13.12298 32.47948,10.56932 3.17765,-0.59489 5.50123,-0.36307 8.12114,0.81024 10.74786,4.81335 10.18048,3.64621 -2.28557,-4.70161 z"
       id="path4655"
       style="fill:#d6d4a3;fill-opacity:1" />
    <path
       d="m 279.80826,112.71045 c 1.03421,-1.04516 0.86608,-1.65979 -0.78648,-2.87506 -1.15604,-0.85015 -3.00915,-1.54572 -4.11801,-1.54572 -1.10887,0 -3.80883,-1.21376 -5.99991,-2.69725 -2.85604,-1.93371 -5.36862,-2.67965 -8.8758,-2.63507 -8.28032,0.10519 -13.49559,1.40433 -13.89304,3.46066 -0.29463,1.52441 0.44183,1.87166 3.96952,1.87166 3.24539,0 4.42175,0.46804 4.69212,1.86688 0.72519,3.75203 21.70613,5.89436 25.0116,2.5539 z"
       id="path2330"
       style="fill:#d6d4a3;fill-opacity:1" />
  </g>
</svg>
