<?xml version="1.0" encoding="UTF-8" standalone="no"?>
<!-- Created with Inkscape (http://www.inkscape.org/) -->
<svg
   xmlns:svg="http://www.w3.org/2000/svg"
   xmlns="http://www.w3.org/2000/svg"
   version="1.0"
   width="512"
   height="512"
   id="svg3348">
  <defs
     id="defs3350" />
  <g
     transform="translate(-122.85715,-268.93362)"
     style="fill:#402000;fill-opacity:1;stroke:none;stroke-opacity:1"
     id="layer1">
    <rect
       width="512"
       height="512"
       ry="90"
       x="122.85715"
       y="268.93362"
       style="opacity:1;fill:#402000;fill-opacity:1;fill-rule:nonzero;stroke:none;stroke-opacity:1"
       id="rect3356" />
  </g>
  <g
     transform="matrix(0.9277344,0,0,0.9277344,-95.478811,-230.99898)"
     style="fill:#7a6941;fill-opacity:1"
     id="g3975">
    <rect
       width="512"
       height="512"
       ry="90"
       x="122.85715"
       y="268.93362"
       style="opacity:1;fill:#7a6941;fill-opacity:1;fill-rule:nonzero;stroke:none;stroke-width:3.8810041;stroke-miterlimit:4;stroke-dasharray:none;stroke-opacity:1"
       id="rect3977" />
  </g>
  <g
     transform="translate(-1.9314089,0)"
     id="g3294">
    <path
       d="M 255.91906,69.293536 C 242.43179,69.438266 228.97818,70.879686 216.89508,73.619366 C 188.94166,79.957426 162.92928,92.510256 140.26618,110.56054 C 128.93978,119.58158 113.66244,135.82423 104.97294,148.07391 C 84.00476,177.63298 71.903484,212.78202 70.595215,247.97988 C 69.319652,282.29777 75.456841,311.22164 90.301752,340.83635 C 107.46894,375.08384 133.38472,402.09881 167.11376,420.89845 C 191.47248,434.47534 218.12597,442.12586 248.38892,444.19839 C 249.95752,444.30583 255.91417,444.28584 261.61816,444.1755 C 277.21776,443.87377 290.21386,442.1537 304.64753,438.45351 C 376.51798,420.02904 431.02838,360.55941 443.05105,287.46161 C 444.89689,276.23896 445.42935,269.23475 445.4314,256.4942 C 445.43564,230.09555 440.5726,206.38915 430.18802,182.26853 C 404.87684,123.4774 349.86277,80.920686 286.81781,71.353456 C 276.90897,69.849766 266.40915,69.180966 255.91906,69.293536 z "
       style="fill:#402000;fill-opacity:1"
       id="path3284" />
    <path
       d="M 256.92613,135.21088 C 270.65145,134.78874 283.40778,143.94558 287.00091,157.73263 C 288.03196,161.68881 288.01744,168.64665 286.97803,172.65559 C 284.11508,183.69771 275.15205,192.09744 263.6323,194.53648 C 259.23732,195.46702 256.42653,195.44115 251.89078,194.46782 C 240.69487,192.06525 232.323,184.23104 228.97993,173.02179 C 227.96913,169.63258 227.82377,161.89252 228.70527,158.21328 C 231.27311,147.49566 240.27988,138.51393 250.99815,135.98907 C 252.97474,135.52345 254.96537,135.27118 256.92613,135.21088 z "
       style="fill:#d6d4a3;fill-opacity:1"
       id="path3282" />
    <path
       d="M 207.94589,219.14104 L 247.58784,219.14104 L 287.22979,219.14104 L 287.4129,286.66054 C 287.56456,345.89626 287.69049,354.46955 288.39708,356.74348 C 290.25956,362.73726 292.8329,365.91586 297.64382,368.09591 C 300.20008,369.25426 301.77961,369.71907 306.59301,370.72803 L 308.01207,371.02557 L 308.01207,375.9236 L 308.01207,380.84451 L 257.97898,380.84451 L 207.94589,380.84451 L 207.94589,375.9236 L 207.94589,371.02557 L 209.36494,370.68225 C 220.35511,368.19206 224.05179,365.77052 226.66825,359.28405 L 227.9042,356.21706 L 227.9042,300.25599 C 227.9042,247.6208 227.84666,244.1176 226.96579,241.59413 C 225.77783,238.19092 223.57524,235.14352 221.06069,233.42313 C 219.3249,232.23555 213.4329,230.14727 209.36494,229.28041 L 207.94589,228.98287 L 207.94589,224.06195 L 207.94589,219.14104 z "
       style="fill:#d6d4a3;fill-opacity:1"
       id="path3683" />
  </g>
</svg>
