<?xml version="1.0" encoding="UTF-8" standalone="no"?>
<!-- Created with Inkscape (http://www.inkscape.org/) -->
<svg
   xmlns:svg="http://www.w3.org/2000/svg"
   xmlns="http://www.w3.org/2000/svg"
   version="1.0"
   width="512"
   height="512"
   id="svg3348">
  <defs
     id="defs3350" />
  <g
     transform="translate(-122.85715,-268.93362)"
     style="fill:#402000;fill-opacity:1;stroke:none;stroke-opacity:1"
     id="layer1">
    <rect
       width="512"
       height="512"
       ry="90"
       x="122.85715"
       y="268.93362"
       style="opacity:1;fill:#402000;fill-opacity:1;fill-rule:nonzero;stroke:none;stroke-opacity:1"
       id="rect3356" />
  </g>
  <g
     transform="matrix(0.9277344,0,0,0.9277344,-95.478812,-230.99898)"
     style="fill:#7a6941;fill-opacity:1"
     id="g3975">
    <rect
       width="512"
       height="512"
       ry="90"
       x="122.85715"
       y="268.93362"
       style="opacity:1;fill:#7a6941;fill-opacity:1;fill-rule:nonzero;stroke:none;stroke-width:3.8810041;stroke-miterlimit:4;stroke-dasharray:none;stroke-opacity:1"
       id="rect3977" />
  </g>
  <path
     d="M 254.78968,457.74415 C 252.78949,457.12305 250.78956,455.49631 250.01217,453.85808 C 249.68574,453.17016 242.99749,433.55759 235.14938,410.27454 C 220.12632,365.70547 219.97821,365.20136 220.90458,361.78899 C 221.4477,359.7884 223.15159,357.89476 224.87251,357.37915 C 227.1193,356.70599 228.75602,357.57373 232.68922,361.52335 C 236.01092,364.85893 236.09079,364.91226 237.76403,364.91226 L 239.46401,364.91226 L 239.46401,318.92389 C 239.46401,278.2213 239.52741,272.78375 240.01564,271.61527 C 240.72151,269.92588 241.7733,268.80787 243.56274,267.84485 C 244.98605,267.07887 245.04289,267.07731 278.43287,266.89941 L 311.87735,266.72121 L 312.73737,265.72121 L 313.59735,264.72119 L 313.59735,206.44454 C 313.59735,164.22496 313.4877,147.95339 313.19925,147.3894 C 312.98028,146.96122 312.45901,146.3338 312.04091,145.99511 C 311.3281,145.41771 307.86505,145.37882 256.48824,145.3714 L 201.69576,145.36347 L 200.5318,146.40346 L 199.36784,147.44346 L 199.36784,169.42117 L 199.36784,191.39888 L 200.5318,192.43888 L 201.69576,193.47887 L 219.32683,193.47887 L 236.95789,193.47887 L 238.12185,192.43902 L 239.28581,191.39918 L 239.383,169.80696 L 239.48019,148.21474 L 258.00546,148.21474 L 276.53069,148.21474 L 276.52872,186.08335 C 276.52734,211.68063 276.40419,224.39323 276.14859,225.31373 C 275.68781,226.97301 273.55653,229.41292 271.9979,230.06542 C 270.29517,230.77826 168.35848,230.77826 166.65574,230.06542 C 165.07195,229.40238 162.95078,226.95012 162.49412,225.25417 C 162.23082,224.27634 162.14283,206.89284 162.20764,168.65382 C 162.29386,117.7755 162.34788,113.37953 162.89916,112.37384 C 163.80795,110.71597 165.69455,109.03432 167.10005,108.62928 C 167.94496,108.38579 197.61969,108.30055 257.16475,108.37058 L 345.96936,108.475 L 347.48741,109.54423 C 348.32234,110.1323 349.37864,111.32031 349.83478,112.18426 L 350.66403,113.75506 L 350.66403,206.02074 C 350.66403,288.49294 350.60549,298.42655 350.11242,299.60664 C 349.40655,301.29602 348.35475,302.41404 346.56531,303.37706 C 345.14207,304.14302 345.0842,304.14459 311.73596,304.3225 L 278.33224,304.50071 L 277.52056,305.31244 L 276.70889,306.12416 L 276.61372,335.51821 L 276.51855,364.91226 L 277.9783,364.91226 C 279.33248,364.91226 279.70754,364.66093 283.16378,361.43726 C 285.2129,359.52601 287.40145,357.74664 288.02724,357.48309 C 290.34745,356.50593 293.20672,357.82761 294.3849,360.42187 C 295.19151,362.19798 295.27629,366.07064 294.56509,368.65457 C 293.69041,371.83253 266.30478,452.76832 265.72445,453.89056 C 264.86451,455.55349 262.84109,457.13243 260.78899,457.74189 C 258.55279,458.40591 256.92304,458.40651 254.78968,457.74415 z M 239.46401,79.067937 L 239.46401,53.759592 L 257.90823,53.851904 L 276.35246,53.944216 L 276.44399,79.160249 L 276.53546,104.37628 L 257.99976,104.37628 L 239.46401,104.37628 L 239.46401,79.067937 z "
     style="opacity:1;fill:#402000;fill-opacity:1;stroke:none;stroke-opacity:1"
     id="path3161" />
</svg>
