<?xml version="1.0" encoding="UTF-8" standalone="no"?>
<!-- Created with Inkscape (http://www.inkscape.org/) -->
<svg
   xmlns:svg="http://www.w3.org/2000/svg"
   xmlns="http://www.w3.org/2000/svg"
   version="1.0"
   width="512"
   height="512"
   id="svg3348">
  <defs
     id="defs3350" />
  <g
     transform="translate(-122.85715,-268.93362)"
     style="fill:#402000;fill-opacity:1;stroke:none;stroke-opacity:1"
     id="layer1">
    <rect
       width="512"
       height="512"
       ry="90"
       x="122.85715"
       y="268.93362"
       style="opacity:1;fill:#402000;fill-opacity:1;fill-rule:nonzero;stroke:none;stroke-opacity:1"
       id="rect3356" />
  </g>
  <g
     transform="matrix(0.9277344,0,0,0.9277344,-95.478811,-230.99898)"
     style="fill:#7a6941;fill-opacity:1"
     id="g3975">
    <rect
       width="512"
       height="512"
       ry="90"
       x="122.85715"
       y="268.93362"
       style="opacity:1;fill:#7a6941;fill-opacity:1;fill-rule:nonzero;stroke:none;stroke-width:3.8810041;stroke-miterlimit:4;stroke-dasharray:none;stroke-opacity:1"
       id="rect3977" />
  </g>
  <g
     transform="matrix(0.7324218,0,0,0.7324218,68.500023,103.22914)"
     id="g3443">
    <path
       d="M 66.308653,397.56266 C 66.315883,368.93839 67.299063,355.9041 70.556383,341.2489 C 75.177853,320.45623 84.281053,304.15174 98.499263,291.20115 C 107.12082,283.34825 115.24978,278.03207 128.44148,271.6195 C 138.41238,266.77259 143.30516,263.82296 150.95691,258.04603 C 159.52376,251.57821 160.71893,250.25679 163.36126,244.33138 C 171.86679,225.25785 186.17451,209.9682 205.51833,199.28112 C 212.1693,195.60659 212.90076,195.04336 215.58996,191.52586 C 220.91005,184.56714 224.05982,178.40811 225.4854,172.17641 C 227.25517,164.44014 225.1892,149.61215 221.08784,140.6139 C 218.04773,133.94402 211.99033,127.20903 206.11373,123.96478 C 200.11914,120.65539 195.54112,119.39193 186.31984,118.50197 C 181.30853,118.01832 177.45648,117.35227 176.04705,116.72574 C 168.70399,113.4615 163.19689,106.57301 161.19479,98.147965 C 160.71103,96.112245 160.52284,90.901605 160.51855,79.423775 C 160.51528,70.676835 160.34348,63.417485 160.13677,63.291875 C 159.33155,62.802595 146.64265,65.003795 145.12678,65.895725 C 136.06975,71.224865 133.30034,88.149345 134.91056,128.3292 C 135.12594,133.7035 135.08866,138.47189 134.82235,139.6119 C 134.53408,140.84592 133.29811,142.75845 131.52657,144.71181 C 126.2861,150.49011 115.97704,155.10514 93.113143,161.90826 C 86.222863,163.95845 71.452613,168.4072 60.290353,171.79435 C 32.752133,180.15077 28.977463,181.0003 19.199233,181.04239 C 12.006433,181.07335 11.253533,180.9769 9.0186627,179.73818 C 7.6028127,178.95341 6.1091427,177.55439 5.4048727,176.35337 C 4.0246227,173.9996 2.0706427,166.12221 0.83899267,157.94629 C -0.31175728,150.30739 -0.27063728,130.33297 0.91225267,122.35163 C 3.3825627,105.68376 11.095503,89.585965 23.208123,75.817575 C 34.122973,63.410695 45.962693,54.450655 61.564743,46.790125 C 71.008723,42.153175 78.021393,39.578955 93.864813,34.933415 C 101.71973,32.630225 115.24973,28.574345 123.93148,25.920335 C 173.25746,10.841435 200.45843,4.5241144 231.16929,1.0147544 C 243.04118,-0.34185558 270.37759,-0.33740558 282.28264,1.0230644 C 320.01124,5.3345744 349.41983,12.537945 412.82213,32.997515 C 436.70111,40.703135 444.1822,43.746275 456.41879,50.731595 C 485.67968,67.435325 503.96548,89.877875 510.45101,117.0465 L 511.99969,123.53405 L 512,139.6119 C 512.00024,153.85485 511.87842,156.34206 510.93258,161.40548 C 508.55596,174.12789 507.16121,177.39841 503.08437,179.8084 C 501.39462,180.8073 499.9415,181.07092 495.11675,181.25385 C 485.64881,181.61283 480.34845,180.41765 448.15045,170.66341 C 436.9882,167.28185 422.78171,162.98653 416.58046,161.11824 C 392.25553,153.78975 380.89622,147.91049 378.10886,141.20645 C 377.13363,138.86088 377.10903,138.13868 377.47802,122.68785 C 378.26284,89.824335 376.61408,77.067045 370.61598,69.592875 C 367.96515,66.289705 365.51501,65.127575 358.71411,63.947675 C 355.40018,63.372745 352.51965,62.899455 352.31294,62.895935 C 352.10623,62.892405 351.93711,69.858205 351.93711,78.375475 C 351.93711,87.501595 351.70968,95.089145 351.38334,96.850895 C 349.89533,104.88374 345.04403,111.87711 338.4071,115.55672 C 334.85156,117.52796 334.20054,117.68471 326.3419,118.4617 C 313.80783,119.70096 306.63474,122.44215 299.72588,128.63298 C 294.28971,133.50418 289.84421,141.67132 287.76205,150.61253 C 286.24794,157.11446 285.86489,168.68184 287.01415,173.19742 C 288.52043,179.11571 292.60958,186.58649 297.7219,192.76023 C 299.40964,194.79838 301.46016,196.26381 306.51206,199.04219 C 320.61893,206.80055 331.78172,216.76776 340.59646,229.47604 C 344.26982,234.77197 348.94893,243.36272 350.25159,247.20267 C 350.94411,249.24407 351.93597,250.39367 355.91877,253.77121 C 364.42798,260.98727 373.53238,266.83382 383.35238,271.38822 C 390.69904,274.7955 400.46599,280.62129 406.55824,285.23005 C 429.93865,302.91726 441.61817,326.29804 444.84813,361.88111 C 445.88072,373.25645 446.34961,392.79301 445.90758,406.02468 L 445.5354,417.16635 L 255.91955,417.16635 L 66.303693,417.16635 L 66.308653,397.56266 z M 317.36043,67.207425 L 317.36043,59.114355 L 310.97126,58.751075 C 276.14254,56.770775 228.26536,56.995255 199.22345,59.275025 L 194.58817,59.638885 L 194.58817,67.093605 C 194.58817,71.193695 194.7385,74.717555 194.92225,74.924405 C 195.10598,75.131255 222.72974,75.300495 256.30838,75.300495 L 317.36043,75.300495 L 317.36043,67.207425 z "
       style="fill:#402000;fill-opacity:1"
       id="path3419" />
    <path
       d="M 264.40069,365.66821 C 267.90351,363.86286 270.91589,360.77682 272.28644,357.58957 C 273.8791,353.8858 273.5418,348.36734 271.49607,344.65849 C 268.44698,339.13058 262.54192,336.16468 255.51897,336.63376 C 237.80811,337.81673 234.57123,360.27463 251.21374,366.50403 C 255.03584,367.93468 260.69973,367.57566 264.40069,365.66821 z "
       style="fill:#d6d4a3;fill-opacity:1"
       id="path3417" />
    <path
       d="M 254.50606,354.04714 C 254.35502,353.77201 254.56721,353.23322 254.97759,352.84979 C 256.04818,351.84955 255.90374,351.33572 254.43536,350.92083 C 253.72182,350.71921 253.24672,350.25145 253.3705,349.87243 C 253.60488,349.15483 253.90668,349.13931 255.34791,349.77077 C 256.07116,350.08765 256.22486,349.83956 256.22486,348.35522 C 256.22486,347.15834 256.43469,346.63907 256.85124,346.8051 C 257.19576,346.94241 257.43518,347.72514 257.38329,348.54451 C 257.276,350.23878 257.23922,350.21564 258.90571,349.50235 C 259.83364,349.10518 260.21551,349.16707 260.41308,349.74667 C 260.58838,350.26097 260.16831,350.64885 259.1682,350.89614 C 257.77247,351.24124 257.71799,351.34308 258.44512,352.24761 C 259.32023,353.33622 259.48545,354.54736 258.75882,354.54736 C 258.49884,354.54736 257.95267,354.01137 257.5451,353.35636 L 256.80408,352.16532 L 256.14337,353.35636 C 255.4332,354.63655 254.94314,354.8433 254.50606,354.04714 z "
       style="fill:#402000;fill-opacity:1"
       id="path3415" />
    <path
       d="M 225.98133,356.71855 C 235.75542,352.62387 238.48515,339.77183 231.16259,332.32432 C 224.22507,325.26842 213.11517,325.33159 206.4471,332.46486 C 203.49294,335.62512 202.39275,338.40136 202.39081,342.70052 C 202.38893,346.88829 203.23171,349.14451 206.04366,352.47965 C 210.71983,358.02582 218.77353,359.73808 225.98133,356.71855 z "
       style="fill:#d6d4a3;fill-opacity:1"
       id="path3413" />
    <path
       d="M 217.59567,349.8334 C 215.97261,348.92245 215.14992,346.87494 215.14112,343.72448 C 215.13167,340.3461 215.77223,338.48174 217.33967,337.32555 C 220.45443,335.028 223.21669,339.97411 222.12879,345.90095 C 221.41881,349.76885 219.87179,351.11089 217.59567,349.8334 z M 220.08283,348.14392 C 220.87013,347.07597 221.27222,342.74021 220.76675,340.76921 C 219.62313,336.30981 216.63706,338.27258 216.63706,343.48369 C 216.63706,347.70988 218.52273,350.26015 220.08283,348.14392 z "
       style="fill:#402000;fill-opacity:1"
       id="path3411" />
    <path
       d="M 302.38843,355.84865 C 307.86676,353.07166 311.03613,348.06774 311.07346,342.13638 C 311.11028,336.28524 308.27595,331.42948 303.21334,328.67048 C 292.13438,322.63273 278.27375,329.92905 278.27375,341.79884 C 278.27375,348.45123 281.5799,353.31738 288.10777,356.27294 C 291.45574,357.78877 299.00337,357.56452 302.38843,355.84865 z "
       style="fill:#d6d4a3;fill-opacity:1"
       id="path3407" />
    <path
       d="M 290.49645,348.76497 C 291.47265,344.80518 291.48947,344.95706 290.07461,344.95706 C 289.3111,344.95706 288.87074,344.71516 289.04765,344.39292 C 289.21798,344.08265 289.89985,343.82879 290.56292,343.82879 C 291.25563,343.82879 291.99667,343.34881 292.30487,342.70052 C 292.77412,341.71344 292.68596,341.57225 291.6004,341.57225 C 289.70816,341.57225 289.55596,340.54137 291.41841,340.33948 C 292.84613,340.18472 293.15109,339.85397 293.79275,337.76434 C 294.19767,336.44567 294.80779,335.36676 295.14858,335.36676 C 295.62844,335.36676 295.61229,335.8642 295.07696,337.5723 C 294.69679,338.78535 294.51888,339.92772 294.68159,340.11091 C 295.45018,340.97616 296.25137,340.22652 297.03879,337.90537 C 297.91005,335.33708 299.24597,334.24165 298.58675,336.63607 C 297.64715,340.04887 297.66523,340.44398 298.76089,340.44398 C 299.34424,340.44398 299.82154,340.69784 299.82154,341.00811 C 299.82154,341.31839 299.17133,341.57225 298.37665,341.57225 C 297.3532,341.57225 296.85531,341.90134 296.66967,342.70052 C 296.46255,343.59215 296.6543,343.82879 297.58387,343.82879 C 298.23083,343.82879 298.89953,344.08265 299.06987,344.39292 C 299.25364,344.72768 298.6714,344.95706 297.63787,344.95706 C 296.03832,344.95706 295.83908,345.14986 295.19669,347.31937 C 294.81198,348.61865 294.19352,349.79566 293.8223,349.93496 C 293.34017,350.11588 293.25179,349.88424 293.51289,349.12401 C 293.71391,348.53869 294.0081,347.33597 294.16664,346.45128 C 294.40635,345.11365 294.30194,344.87614 293.54668,345.04094 C 292.99371,345.16161 292.36089,346.1769 291.9288,347.6367 C 291.2042,350.08467 289.92214,351.09456 290.49645,348.76497 z M 295.31154,343.59286 C 295.31154,343.4631 295.44841,342.95538 295.6157,342.46459 C 295.83376,341.82489 295.62094,341.57225 294.86404,341.57225 C 294.28332,341.57225 293.8082,341.67842 293.8082,341.80817 C 293.8082,341.93794 293.67132,342.44566 293.50403,342.93644 C 293.28598,343.57615 293.4988,343.82879 294.2557,343.82879 C 294.83641,343.82879 295.31154,343.72262 295.31154,343.59286 z "
       style="fill:#402000;fill-opacity:1"
       id="path3405" />
    <path
       d="M 198.56754,330.54112 C 201.92378,328.8455 205.22046,325.25722 206.47477,321.93449 C 208.40676,316.81653 206.91523,310.11429 203.00594,306.34724 C 199.11504,302.59791 196.99327,301.80609 190.82984,301.80326 C 185.80168,301.80095 185.06614,301.93975 182.45404,303.38377 C 175.36171,307.30457 172.31012,315.87471 175.51676,322.86653 C 177.36625,326.89921 181.90123,330.67883 186.43733,331.96814 C 189.69298,332.8935 195.19175,332.24662 198.56754,330.54112 z "
       style="fill:#d6d4a3;fill-opacity:1"
       id="path3401" />
    <path
       d="M 187.69477,324.22537 C 186.6868,323.84481 187.51519,322.95579 188.87774,322.95579 C 190.19884,322.95579 192.58373,320.69374 192.58373,319.44068 C 192.58373,318.91481 192.01082,318.75647 190.64047,318.90359 C 189.05633,319.07366 188.54701,318.87078 187.88436,317.80573 C 186.29075,315.2444 187.21003,311.5716 189.57706,311.04289 C 192.34647,310.42431 194.36621,313.1894 194.21722,317.39543 C 194.14006,319.57391 193.01792,322.58711 192.02707,323.2765 C 191.15123,323.88588 188.3947,324.48962 187.69477,324.22537 z M 191.82347,316.96145 C 193.55306,315.01433 191.69463,311.17473 189.70233,312.57908 C 188.00215,313.77752 188.50668,317.87857 190.35429,317.87857 C 190.71427,317.87857 191.3754,317.46587 191.82347,316.96145 z "
       style="fill:#402000;fill-opacity:1"
       id="path3399" />
    <path
       d="M 330.03538,329.29114 C 335.72786,326.27872 338.60839,321.70232 338.63912,315.62203 C 338.65426,312.62671 338.40879,311.47858 337.29875,309.35289 C 333.78787,302.6296 327.04452,299.29355 319.3575,300.47703 C 311.48035,301.68978 305.73616,308.07715 305.76807,315.58807 C 305.78468,319.49755 306.61149,321.98476 308.84758,324.85182 C 313.82462,331.23328 322.80844,333.11559 330.03538,329.29114 z "
       style="fill:#d6d4a3;fill-opacity:1"
       id="path3395" />
    <path
       d="M 318.86376,322.4024 C 318.86376,322.09804 319.42751,321.68973 320.11654,321.49504 C 321.32833,321.15265 321.36932,320.98619 321.36932,316.40708 L 321.36932,311.67309 L 319.99127,311.65515 C 318.67131,311.63796 318.65422,311.60229 319.58593,310.80895 C 320.12093,310.3534 321.0793,309.98068 321.71565,309.98068 C 322.84657,309.98068 322.87265,310.10697 322.87265,315.5828 C 322.87265,320.9011 322.92779,321.19405 323.9609,321.36518 C 324.55944,321.46433 325.14198,321.86278 325.25544,322.25062 C 325.40646,322.76686 324.57788,322.95579 322.16275,322.95579 C 320.34021,322.95579 318.86376,322.70812 318.86376,322.4024 z "
       style="fill:#402000;fill-opacity:1"
       id="path3393" />
    <path
       d="M 267.78786,326.58111 C 280.45273,323.87648 292.43655,315.67986 299.10336,305.16215 C 307.39459,292.08171 308.63078,277.01887 302.57376,262.87541 C 292.79447,240.04024 266.01974,228.32324 240.75534,235.8228 C 223.64814,240.90095 210.30593,254.91304 206.79353,271.48976 C 206.34057,273.62751 205.98376,277.75127 205.97692,280.92773 C 205.95182,292.57823 209.92015,302.47266 218.20945,311.42764 C 222.56776,316.13596 225.20118,318.2286 230.50565,321.19879 C 236.76228,324.70216 241.37075,326.13294 251.4643,327.70584 C 254.15056,328.12444 263.61449,327.47236 267.78786,326.58111 z "
       style="fill:#d6d4a3;fill-opacity:1"
       id="path3391" />
    <path
       d="M 188.03761,295.00395 C 194.32176,291.8291 197.89616,285.00828 196.62548,278.61617 C 195.54635,273.18765 191.70609,268.93207 185.94129,266.7765 C 182.35795,265.43661 175.65844,265.88939 172.28872,267.69919 C 164.89597,271.66966 161.73018,280.14994 164.971,287.30141 C 165.95029,289.46239 169.50785,293.52646 171.43839,294.68959 C 175.89356,297.37381 183.07753,297.50985 188.03761,295.00395 z "
       style="fill:#d6d4a3;fill-opacity:1"
       id="path3389" />
    <path
       d="M 179.30427,288.6604 C 176.76383,288.06896 175.70222,284.88956 177.3576,282.83033 C 178.10279,281.90336 178.10279,281.75108 177.3576,280.91218 C 175.06229,278.32819 178.20278,274.23905 181.4238,275.6177 C 182.17612,275.93971 182.96192,276.50461 183.17002,276.87304 C 183.81794,278.02018 183.60095,280.22844 182.73438,281.30641 C 182.21906,281.94746 182.12889,282.33807 182.49624,282.33807 C 182.82139,282.33807 183.30209,282.97372 183.56448,283.75064 C 184.50498,286.53548 182.09703,289.31058 179.30427,288.6604 z M 182.14481,286.02165 C 182.92218,284.10093 181.91865,282.78696 179.84807,283.01442 C 178.67116,283.14372 178.26296,283.49472 178.13831,284.48462 C 177.77412,287.37674 181.08265,288.646 182.14481,286.02165 z M 181.35886,280.77806 C 182.93688,279.59161 182.24901,276.69672 180.38909,276.69672 C 179.06289,276.69672 178.0515,277.67304 178.0515,278.95326 C 178.0515,280.75039 179.98026,281.81457 181.35886,280.77806 z "
       style="fill:#402000;fill-opacity:1"
       id="path3387" />
    <path
       d="M 340.21483,293.47932 C 345.7721,290.24739 348.42932,285.87158 348.42932,279.95201 C 348.42932,271.12064 341.50065,264.69475 331.89265,264.61535 C 328.12173,264.58418 327.25963,264.7815 324.37599,266.33576 C 318.43475,269.53803 315.64361,273.93162 315.64361,280.08153 C 315.64361,284.60023 316.84849,287.44379 320.14898,290.71438 C 323.80438,294.33667 326.6656,295.35059 332.64432,295.14234 C 336.89406,294.99431 338.0443,294.74163 340.21483,293.47932 z "
       style="fill:#d6d4a3;fill-opacity:1"
       id="path3381" />
    <path
       d="M 328.1148,286.81558 C 327.93372,286.48575 329.16067,284.60377 330.84133,282.6334 C 333.86929,279.08351 334.45734,277.55306 333.29576,276.24541 C 332.46267,275.30753 330.63757,275.39817 329.88821,276.41465 C 329.08137,277.5091 328.38488,277.49576 328.38488,276.38586 C 328.38488,275.08309 331.55181,273.75808 333.091,274.41688 C 334.67952,275.09679 335.57412,276.96914 335.17208,278.77247 C 334.99961,279.54606 333.79656,281.4623 332.49864,283.0308 L 330.13877,285.88259 L 332.7696,285.60348 C 335.08609,285.35771 335.40043,285.44928 335.40043,286.36982 C 335.40043,287.28726 334.97452,287.41528 331.92223,287.41528 C 330.00647,287.41528 328.29613,287.14589 328.1148,286.81558 z "
       style="fill:#402000;fill-opacity:1"
       id="path3379" />
    <path
       d="M 193.35274,260.84958 C 200.86955,259.28526 205.90971,253.89527 206.48034,246.81082 C 207.12349,238.82599 201.73739,232.20398 193.17854,230.45677 C 185.78662,228.94778 177.73707,233.07511 174.70932,239.9267 C 173.48808,242.6903 173.4806,249.16996 174.69571,251.7248 C 176.68288,255.90292 180.907,259.30007 185.81872,260.67019 C 189.05312,261.57242 189.79452,261.59008 193.35274,260.84958 z "
       style="fill:#d6d4a3;fill-opacity:1"
       id="path3377" />
    <path
       d="M 189.8794,247.84906 C 190.81556,245.01437 191.5815,242.44433 191.5815,242.13785 C 191.5815,241.80733 190.4602,241.68531 188.82539,241.83793 C 186.40429,242.06396 186.06928,241.96959 186.06928,241.06159 C 186.06928,240.15792 186.51039,240.02794 189.57706,240.02794 C 191.50633,240.02794 193.09259,240.21833 193.10207,240.45104 C 193.11155,240.68374 192.38109,243.60314 191.47884,246.93859 C 190.25409,251.46625 189.62792,253.00304 189.00784,253.00304 C 188.29813,253.00304 188.42492,252.25325 189.8794,247.84906 z "
       style="fill:#402000;fill-opacity:1"
       id="path3375" />
    <path
       d="M 328.61831,258.60316 C 336.63239,255.2276 340.28589,245.56395 336.41817,237.97226 C 333.4116,232.07088 328.46503,229.15781 321.36932,229.1099 C 317.74962,229.08546 316.65829,229.31454 314.10321,230.63508 C 308.22548,233.67287 305.13252,238.45102 305.10174,244.54102 C 305.0866,247.53634 305.33207,248.68448 306.44211,250.81017 C 310.6947,258.95379 320.01221,262.22808 328.61831,258.60316 z "
       style="fill:#d6d4a3;fill-opacity:1"
       id="path3373" />
    <path
       d="M 319.49012,251.75346 C 318.58184,251.4885 317.86154,250.91125 317.86154,250.44831 C 317.86154,249.45696 317.81593,249.46237 319.75569,250.22362 C 320.87645,250.66345 321.59027,250.65308 322.36605,250.18567 C 323.92288,249.2477 323.54511,246.75046 321.69615,245.75727 L 320.2691,244.99071 L 321.85559,243.90457 C 324.5479,242.06136 322.8902,239.13431 319.87873,240.41398 C 318.66975,240.92771 318.36265,240.9079 318.36265,240.31619 C 318.36265,239.90808 319.04759,239.30538 319.88473,238.97684 C 323.01224,237.74947 325.86786,240.78025 324.23204,243.59082 C 323.52011,244.81401 323.5193,245.02722 324.2236,245.8201 C 325.89632,247.7032 324.67337,251.46356 322.21624,251.99235 C 321.6126,252.12225 320.38584,252.01476 319.49012,251.75346 z "
       style="fill:#402000;fill-opacity:1"
       id="path3371" />
    <path
       d="M 225.27674,233.1157 C 232.8655,229.2045 236.0751,221.15437 232.97965,213.79566 C 231.52564,210.33908 229.28155,207.88744 225.65707,205.79584 C 223.15034,204.34927 222.42486,204.20536 217.63929,204.20536 C 212.89089,204.20536 212.09888,204.35945 209.5201,205.78498 C 206.12423,207.66221 202.53693,211.92196 201.69834,215.07296 C 199.44906,223.52457 204.36262,231.91832 212.99622,234.37292 C 216.21541,235.28815 222.26283,234.66905 225.27674,233.1157 z "
       style="fill:#d6d4a3;fill-opacity:1"
       id="path3369" />
    <path
       d="M 214.62004,224.93732 C 213.71428,223.64526 213.56725,222.83922 213.74044,220.11506 C 213.91178,217.42 214.20711,216.55414 215.41801,215.19664 C 216.24976,214.26419 217.54012,213.48018 218.39095,213.39032 C 220.24192,213.1948 220.87202,214.23929 219.14262,214.63632 C 217.42106,215.03155 216.38602,215.82957 215.70799,217.28442 C 214.88637,219.04739 214.94311,219.11883 216.88338,218.76437 C 219.71536,218.247 221.64201,221.00076 220.6022,224.07964 C 219.95235,226.00383 219.31221,226.46914 217.29983,226.48006 C 216.15498,226.48627 215.402,226.05279 214.62004,224.93732 z M 218.4275,224.92869 C 219.46636,224.12788 219.67398,222.39368 218.89188,221.04993 C 217.9911,219.50227 217.02906,219.35837 215.92119,220.60557 C 214.04065,222.72263 216.27954,226.58446 218.4275,224.92869 z "
       style="fill:#402000;fill-opacity:1"
       id="path3367" />
    <path
       d="M 300.96691,232.54004 C 306.76174,229.55342 309.84727,224.65966 309.83906,218.46852 C 309.83308,213.95826 307.90916,209.88798 304.44425,207.05515 C 300.91185,204.16714 297.58791,203.17954 292.34918,203.46151 C 286.94762,203.75224 283.30703,205.54277 280.30126,209.38697 C 271.82936,220.22202 280.45643,235.07796 294.68016,234.14761 C 297.09238,233.98984 299.1992,233.4511 300.96691,232.54004 z "
       style="fill:#d6d4a3;fill-opacity:1"
       id="path3363" />
    <path
       d="M 292.57772,225.40104 C 292.41964,225.1131 292.74459,224.71521 293.29981,224.51682 C 293.85504,224.31844 294.30931,223.79244 294.30931,223.34794 C 294.30931,222.7542 293.64446,222.53975 291.80376,222.53975 C 290.4257,222.53975 289.2982,222.28006 289.2982,221.96266 C 289.2982,221.64525 290.33447,219.37777 291.60103,216.92381 C 294.45626,211.39178 295.21052,211.42478 295.41578,217.0907 C 295.51949,219.95352 295.74446,221.08835 296.18848,220.98838 C 297.11167,220.78052 296.94991,222.01514 295.93792,222.90066 C 295.10274,223.63148 295.10274,223.70456 295.93792,224.43538 C 296.42024,224.85743 296.81487,225.36515 296.81487,225.56365 C 296.81487,226.13387 292.8975,225.98354 292.57772,225.40104 z M 294.10446,220.63463 C 294.25009,220.20737 294.29939,218.62074 294.21401,217.10879 L 294.05876,214.35979 L 292.55829,217.46254 C 291.73304,219.16904 290.98137,220.75567 290.88792,220.98838 C 290.79447,221.22109 291.42039,221.41148 292.27884,221.41148 C 293.14202,221.41148 293.95801,221.06426 294.10446,220.63463 z "
       style="fill:#402000;fill-opacity:1"
       id="path3361" />
    <path
       d="M 261.56412,223.95565 C 266.61773,222.26615 270.72448,217.52928 271.79217,212.15827 C 273.04545,205.8537 269.71746,199.43412 263.37298,195.91792 C 260.35515,194.24539 259.63395,194.0775 255.50686,194.08666 C 251.61682,194.0953 250.53066,194.32087 247.95652,195.65469 C 237.41545,201.11669 235.69586,213.65187 244.4558,221.17372 C 248.43955,224.59443 255.98394,225.8212 261.56412,223.95565 z "
       style="fill:#d6d4a3;fill-opacity:1"
       id="path3357" />
    <path
       d="M 253.63069,217.00904 C 252.89293,216.91135 251.99632,216.43399 251.6382,215.94823 C 251.0562,215.15874 251.26087,215.10742 253.56712,215.4645 C 255.9813,215.83829 256.20251,215.76882 257.00875,214.3836 C 258.55,211.73551 256.20505,208.63113 253.77117,210.09753 C 252.26016,211.0079 252.21597,210.92864 252.21597,207.3081 L 252.21597,203.92329 L 255.26439,203.92329 C 258.98004,203.92329 259.22476,205.23636 255.5593,205.50557 C 253.37769,205.66581 253.21819,205.783 253.21819,207.22574 C 253.21819,208.64365 253.35673,208.75574 254.86438,208.5576 C 257.21745,208.24834 258.93086,209.93755 258.93086,212.56664 C 258.93086,215.86168 257.02565,217.45856 253.63069,217.00904 z "
       style="fill:#402000;fill-opacity:1"
       id="path3355" />
  </g>
</svg>
