<?xml version="1.0" encoding="UTF-8" standalone="no"?>
<!-- Created with Inkscape (http://www.inkscape.org/) -->
<svg
   xmlns:svg="http://www.w3.org/2000/svg"
   xmlns="http://www.w3.org/2000/svg"
   version="1.0"
   width="512"
   height="512"
   id="svg3348">
  <defs
     id="defs3350" />
  <g
     transform="translate(-122.85715,-268.93362)"
     style="fill:#402000;fill-opacity:1;stroke:none;stroke-opacity:1"
     id="layer1">
    <rect
       width="512"
       height="512"
       ry="90"
       x="122.85715"
       y="268.93362"
       style="opacity:1;fill:#402000;fill-opacity:1;fill-rule:nonzero;stroke:none;stroke-opacity:1"
       id="rect3356" />
  </g>
  <g
     transform="matrix(0.9277344,0,0,0.9277344,-95.478811,-230.99898)"
     style="fill:#7a6941;fill-opacity:1"
     id="g3975">
    <rect
       width="512"
       height="512"
       ry="90"
       x="122.85715"
       y="268.93362"
       style="opacity:1;fill:#7a6941;fill-opacity:1;fill-rule:nonzero;stroke:none;stroke-width:3.8810041;stroke-miterlimit:4;stroke-dasharray:none;stroke-opacity:1"
       id="rect3977" />
  </g>
  <g
     transform="matrix(0.3844946,0,0,0.3844946,122.5167,52.905798)"
     id="g5529">
    <path
       d="M 380.88668,1008.6139 C 383.78886,984.87255 372.7282,911.11402 361.8928,881.95227 C 350.76633,852.00717 310.20119,844.4576 213.92768,854.41451 C 200.84386,855.76768 182.20862,857.63067 172.51604,858.55449 L 154.89315,860.23415 L 149.51604,856.39738 C 132.57511,844.30939 120.40935,831.48757 119.06094,824.29993 C 118.69123,822.32917 119.12635,817.293 120.07168,812.60164 C 120.98465,808.07088 122.24827,798.6633 122.87972,791.6959 C 124.84871,769.97032 121.31798,746.03109 114.02091,731.63101 C 111.71859,727.08761 111.55348,726.09242 112.55013,722.76592 C 114.79298,715.27995 130.19746,704.92798 148.91622,698.32753 C 153.19374,696.81923 156.53257,695.42421 156.33585,695.22749 C 156.13913,695.03077 149.12128,694.18217 140.74062,693.34173 C 122.50169,691.51265 117.11644,690.44064 112.71219,687.76225 L 109.38904,685.74133 L 109.84439,678.05261 C 110.35477,669.43453 112.42139,663.92604 118.851,654.04583 L 122.96252,647.72778 L 121.81854,636.03734 C 119.02535,607.4935 114.39614,603.77831 79.33074,601.93856 C 60.08692,600.92891 50.54847,598.94038 45.35546,594.85556 C 41.20605,591.59164 39.30817,585.13842 39.83272,576.07706 C 40.24727,568.91604 40.93467,566.82795 47.98593,551.3103 C 52.2212,541.98977 60.87581,524.46389 67.2184,512.36389 C 101.45706,447.04555 111.34266,422.6251 112.35454,400.86389 L 112.84278,390.36389 L 108.0952,381.40265 C 103.36291,372.47025 103.3446,372.39784 102.40611,358.90265 C 100.65039,333.65599 103.00073,297.40913 108.24445,268.86389 C 123.90484,183.61352 161.85429,124.72763 219.00735,96.993883 C 244.48557,84.630473 311.01751,65.217153 365.12988,54.356873 C 412.51936,44.845863 452.09149,40.580083 493.13892,40.557823 C 534.58804,40.535333 564.79731,44.654683 594.24374,54.344503 C 619.89364,62.785013 635.47184,71.400783 658.89494,90.100993 C 704.05634,126.15622 739.00244,160.69843 761.34204,191.36389 C 783.78934,222.17726 797.57724,256.83825 801.69964,292.81739 C 803.52814,308.77631 802.38754,340.50398 799.23184,361.46306 C 791.82614,410.6491 776.12554,474.62716 758.59654,527.0467 C 749.78174,553.4069 744.22404,566.03676 735.49344,579.54856 C 683.33004,660.27877 666.76264,799.68511 687.08684,986.86385 C 687.83334,993.73885 688.32454,999.48975 688.17844,999.64365 C 688.00044,999.83095 383.49011,1015.8639 380.10936,1015.8639 C 380.04945,1015.8639 380.39925,1012.6014 380.88668,1008.6139 z "
       style="fill:#402000;fill-opacity:1"
       id="path4543" />
    <path
       d="M 642.63894,723.31533 C 650.69654,721.43234 664.72314,714.60858 669.05074,710.46628 C 672.16634,707.48422 672.53514,706.2391 678.56024,678.36389 C 682.00774,662.41389 685.95014,644.18889 687.32104,637.86389 C 692.35014,614.66115 701.51674,589.80111 717.18794,556.86389 C 728.01694,534.10372 732.69054,522.60897 738.93984,503.36389 C 747.43364,477.20714 764.02254,412.8773 770.14254,382.36389 C 782.65364,319.98419 779.24374,278.15221 758.15994,235.36389 C 739.23294,196.95286 709.59414,164.29069 660.39984,127.63182 C 616.14284,94.652143 602.55754,85.213333 591.33744,79.648733 C 578.93216,73.496303 566.78582,69.335583 552.25136,66.259803 C 536.87121,63.005063 504.35835,61.882923 483.47775,63.886173 C 476.14139,64.590013 456.86392,65.237673 440.63892,65.325413 C 407.22227,65.506133 396.06826,66.616603 364.63892,72.891773 C 315.04427,82.793833 252.26309,105.47888 216.61455,126.37818 C 208.63426,131.0567 203.15028,135.84256 205.71461,135.89054 C 206.49798,135.90519 204.43892,137.3662 201.13892,139.13723 C 193.46705,143.25451 179.5301,156.99314 172.7669,167.10552 C 151.02668,199.61163 132.72693,254.54321 122.13312,319.09628 C 120.18197,330.98555 119.9147,334.42464 120.89255,335.05936 C 123.31857,336.63408 140.38549,341.76122 147.08468,342.92783 C 156.67956,344.5987 173.61601,343.63507 180.9807,340.99924 C 196.49592,335.44632 212.5439,318.54178 235.82338,283.22929 C 241.39885,274.7719 246.09256,267.98419 246.25385,268.14549 C 246.41514,268.30678 246.12681,271.3469 245.61312,274.90132 C 243.21728,291.47892 245.22065,320.03036 249.73406,333.63193 C 253.37328,344.59903 256.92119,348.76412 266.74598,353.60315 C 273.67606,357.01645 276.79751,359.35449 282.76677,365.60315 C 298.82904,382.41724 317.0474,415.65167 327.31206,446.86389 C 329.61773,453.87486 332.59244,467.83098 336.26424,488.86389 C 345.36685,541.00563 350.35082,562.06677 355.60982,570.61389 C 357.41474,573.54732 358.07364,573.8635 362.37422,573.85987 C 369.87254,573.85354 385.35032,571.13187 394.54895,568.20214 C 401.05033,566.13147 403.91306,564.59767 407.16299,561.44373 C 415.69368,553.16502 418.41543,537.49485 415.24647,514.90405 C 410.47281,480.87379 417.21227,462.36155 437.99406,452.41995 C 457.29492,443.1868 489.63586,440.00418 502.75893,446.04655 C 518.04103,453.08302 524.95138,464.65973 534.75004,499.64033 C 539.08407,515.11252 542.19395,523.10567 546.12001,528.86389 C 550.66238,535.52602 559.85855,561.6097 587.71847,646.85218 C 597.69294,677.37075 607.33864,705.28896 609.15344,708.89266 C 616.31074,723.10517 625.88744,727.23001 642.63894,723.31533 z "
       style="fill:#a9a776;fill-opacity:1"
       id="path4541" />
    <path
       d="M -76.55781,814.34279 L -80.25455,807.84019 L -78.05781,806.43019 C -72.09447,802.60255 28.08007,744.86389 28.75755,744.86389 C 29.61513,744.86389 37.09572,757.79124 36.50389,758.25049 C 35.64556,758.91655 -72.2568,820.86302 -72.54404,820.85463 C -72.71841,820.84954 -74.52461,817.91921 -76.55781,814.34279 z "
       style="fill:#402000;fill-opacity:1"
       id="path4539" />
    <path
       d="M -107.94394,701.50856 C -108.22998,700.76313 -108.32836,697.27563 -108.16255,693.75856 L -107.86108,687.36389 L -44.61108,687.10643 L 18.63892,686.84898 L 18.63892,694.85643 L 18.63892,702.86389 L -44.39246,702.86389 C -96.50755,702.86389 -107.51392,702.62916 -107.94394,701.50856 z "
       style="fill:#402000;fill-opacity:1"
       id="path4537" />
    <path
       d="M -23.25723,615.91645 C -52.62511,598.89677 -77.07254,584.55243 -77.58485,584.04012 C -78.49602,583.12895 -73.22037,572.51299 -71.25175,571.29632 C -70.18939,570.63975 37.63892,632.64611 37.63892,633.9136 C 37.63892,634.70105 30.78322,646.86542 30.34102,646.8626 C 30.22986,646.86189 6.1106501,632.93612 -23.25723,615.91645 z "
       style="fill:#402000;fill-opacity:1"
       id="path4533" />
  </g>
</svg>
